<svg width="120" height="21" viewBox="0 0 120 21" fill="none" xmlns="http://www.w3.org/2000/svg">
<g clip-path="url(#clip0_1760_107385)">
<path d="M81.2439 0.433641C80.7356 0.150595 80.1566 0 79.566 0C78.4138 0 77.3698 0.544319 76.7753 1.45515L69.9435 11.9206L63.1119 1.45515C62.5171 0.544319 61.4731 0 60.3211 0C59.7324 0 59.1513 0.150595 58.6432 0.433641C57.8993 0.849138 57.3734 1.50776 57.1654 2.28795C56.9572 3.06814 57.0888 3.87737 57.5383 4.56502L67.1488 19.2888C67.6847 20.1108 68.5854 20.6351 69.6294 20.7295H69.6491C69.6964 20.7349 69.7434 20.7385 69.8082 20.7404L69.9474 20.744C69.9579 20.744 69.9878 20.7433 70.018 20.7425C70.0569 20.7415 70.0965 20.7404 70.0965 20.7404C70.1131 20.7397 70.1294 20.7389 70.1451 20.7379C70.1609 20.737 70.1761 20.7361 70.1898 20.7351L70.1903 20.7351C70.2021 20.7343 70.2129 20.7336 70.2223 20.7331L70.2615 20.7295C71.2997 20.6369 72.2025 20.1126 72.7402 19.2888L82.3507 4.56502C83.2792 3.14434 82.7827 1.29185 81.2458 0.433641H81.2439Z" fill="#F5F5F5"/>
<path d="M87.5005 0.424561C85.7065 0.424561 84.2466 1.77447 84.2466 3.43284V17.3075C84.2466 18.9659 85.7065 20.3158 87.5005 20.3158C89.2942 20.3158 90.7544 18.9659 90.7544 17.3075V3.43465C90.7544 1.77447 89.2942 0.426375 87.5005 0.426375V0.424561Z" fill="#F5F5F5"/>
<path fill-rule="evenodd" clip-rule="evenodd" d="M29.6326 10.342C29.6326 3.16966 33.7656 0.110596 43.4567 0.110596C53.1478 0.110596 57.283 3.17147 57.283 10.342C57.283 13.9054 56.2547 16.4329 54.1409 18.0695C51.9113 19.795 48.4161 20.6332 43.4567 20.6332C38.4973 20.6332 35.0021 19.795 32.7746 18.0695C30.6608 16.4329 29.6326 13.9054 29.6326 10.342ZM36.1404 10.3365C36.1404 14.0615 38.5346 15.8722 43.4567 15.8722C48.3809 15.8722 50.7733 14.0179 50.7733 10.3365C50.7733 6.65512 48.4495 4.86612 43.4567 4.86612C38.464 4.86612 36.1404 6.61159 36.1404 10.3365Z" fill="#F5F5F5"/>
<path d="M24.3965 0.424561C22.6027 0.424561 21.1426 1.77447 21.1426 3.43284V11.4869L5.21057 1.0342C4.66498 0.653175 3.98791 0.424561 3.25392 0.424561C1.46014 0.424561 0 1.77447 0 3.43465V17.3093C0 18.9677 1.46014 20.3176 3.25392 20.3176C5.04769 20.3176 6.50783 18.9677 6.50783 17.3093V9.26793L23.0718 20.1362L23.1169 20.0763C23.5094 20.2323 23.9412 20.3176 24.3945 20.3176C26.1883 20.3176 27.6486 18.9677 27.6486 17.3093V3.43465C27.6486 1.77447 26.1883 0.426375 24.3945 0.426375L24.3965 0.424561Z" fill="#F5F5F5"/>
<path d="M111.524 9.36247H117.504L117.502 9.36609C118.87 9.36609 119.979 10.3912 119.979 11.6559V17.3131C119.979 18.9733 118.522 20.3214 116.725 20.3214C115.822 20.3214 115.006 19.9803 114.417 19.4324C112.329 20.2397 109.613 20.6353 106.206 20.6353C101.246 20.6353 97.7509 19.797 95.5234 18.0716C93.4096 16.435 92.3813 13.9075 92.3813 10.3441C92.3813 3.17173 96.5144 0.112671 106.206 0.112671C113.379 0.112671 117.506 1.79099 119.166 5.57037C119.598 6.55376 118.797 7.62791 117.649 7.62791H113.644C113.22 7.62791 112.833 7.43013 112.594 7.10715C111.481 5.60665 109.365 4.8682 106.206 4.8682C101.213 4.8682 98.8892 6.61366 98.8892 10.3386C98.8892 14.0636 101.283 15.8743 106.206 15.8743C109.124 15.8743 111.153 15.2375 112.321 13.942H111.524C110.156 13.942 109.047 12.9169 109.047 11.6522C109.047 10.3876 110.156 9.36247 111.524 9.36247Z" fill="#F5F5F5"/>
</g>
<defs>
<clipPath id="clip0_1760_107385">
<rect width="120" height="20.744" fill="white"/>
</clipPath>
</defs>
</svg>
