<svg width="48" height="70" viewBox="0 0 48 70" fill="none" xmlns="http://www.w3.org/2000/svg">
<rect x="0.5" y="0.5" width="47" height="69" rx="4.5" stroke="#9747FF" stroke-dasharray="10 5"/>
<g clip-path="url(#clip0_1760_107387)">
<path d="M29.0251 15.9918C27.3822 15.9918 26.0504 17.3564 26.0504 19.0397V21.5797L21.4578 16.8742C20.298 15.686 18.4177 15.686 17.258 16.8742C16.0982 18.0625 16.0982 19.989 17.258 21.1773L26.7186 30.8705C27.1068 31.2763 27.5785 31.6782 28.1448 31.8577C29.1706 32.1948 30.3399 31.9462 31.1541 31.112C31.8305 30.419 31.9998 29.4981 31.9998 28.5725V19.0397C31.9998 17.3565 30.668 15.9919 29.0251 15.9919V15.9918Z" fill="black"/>
<path d="M18.9697 31.9932C20.6098 31.9932 21.9394 30.6286 21.9394 28.9453C21.9394 27.262 20.6098 25.8975 18.9697 25.8975C17.3296 25.8975 16 27.262 16 28.9453C16 30.6286 17.3296 31.9932 18.9697 31.9932Z" fill="black"/>
</g>
<g clip-path="url(#clip1_1760_107387)">
<path d="M29.0251 42.9918C27.3822 42.9918 26.0504 44.3564 26.0504 46.0397V48.5797L21.4578 43.8742C20.298 42.686 18.4177 42.686 17.258 43.8742C16.0982 45.0625 16.0982 46.989 17.258 48.1773L26.7186 57.8705C27.1068 58.2763 27.5785 58.6782 28.1448 58.8577C29.1706 59.1948 30.3399 58.9462 31.1541 58.112C31.8305 57.419 31.9998 56.4981 31.9998 55.5725V46.0397C31.9998 44.3565 30.668 42.9919 29.0251 42.9919V42.9918Z" fill="#F5F5F5"/>
<path d="M18.9697 58.9932C20.6098 58.9932 21.9394 57.6286 21.9394 55.9453C21.9394 54.262 20.6098 52.8975 18.9697 52.8975C17.3296 52.8975 16 54.262 16 55.9453C16 57.6286 17.3296 58.9932 18.9697 58.9932Z" fill="#F5F5F5"/>
</g>
<defs>
<clipPath id="clip0_1760_107387">
<rect width="16" height="16" fill="white" transform="translate(16 16)"/>
</clipPath>
<clipPath id="clip1_1760_107387">
<rect width="16" height="16" fill="white" transform="translate(16 43)"/>
</clipPath>
</defs>
</svg>
