<svg width="120" height="23" viewBox="0 0 120 23" fill="none" xmlns="http://www.w3.org/2000/svg">
<g clip-path="url(#clip0_1760_107384)">
<path d="M87.0935 0.0102858C85.2979 0.0102858 83.8367 1.46465 83.8367 3.25184V18.8824C83.8367 20.6692 85.2979 22.1239 87.0935 22.1239C88.8891 22.1239 90.3503 20.6695 90.3503 18.8824V3.25344C90.3503 1.46465 88.8891 0.0118783 87.0935 0.0118783V0.0098877V0.0102858Z" fill="#050505"/>
<path d="M80.5692 0.471716C80.0664 0.170333 79.494 0.0098877 78.9096 0.0098877C77.7704 0.0098877 76.7376 0.589562 76.1496 1.5594L69.3928 12.703L62.636 1.5594C62.048 0.589562 61.0152 0.0098877 59.876 0.0098877C59.2936 0.0098877 58.7192 0.170333 58.2164 0.471716C57.4808 0.914037 56.9604 1.61554 56.7548 2.44603C56.5488 3.27693 56.6788 4.13848 57.1236 4.87063L66.6288 20.5481C67.1588 21.4232 68.0496 21.9818 69.082 22.0821H69.1016C69.1484 22.0881 69.1948 22.0917 69.2588 22.0937L69.3964 22.0976C69.4196 22.0976 69.544 22.0937 69.544 22.0937C69.5904 22.0917 69.6372 22.0881 69.668 22.0861L69.7068 22.0821C70.7336 21.9838 71.6264 21.4252 72.1584 20.5481L81.6636 4.87063C82.5816 3.35775 82.0908 1.38542 80.5708 0.471716H80.5688H80.5692Z" fill="#050505"/>
<path d="M43.0137 0.010376C33.3145 0.010376 29.1777 3.30648 29.1777 11.0345C29.1777 14.8741 30.2069 17.5977 32.3225 19.361C34.5521 21.2203 38.0501 22.1236 43.0137 22.1236C47.9773 22.1236 51.4753 21.2203 53.7069 19.361C55.8225 17.5977 56.8517 14.8745 56.8517 11.0345C56.8513 3.30847 52.7129 0.010376 43.0137 0.010376ZM43.0137 16.9937C38.0873 16.9937 35.6909 15.0425 35.6909 11.029C35.6909 7.01544 38.0165 5.13468 43.0137 5.13468C48.0109 5.13468 50.3361 7.06242 50.3361 11.029C50.3361 14.9955 47.9417 16.9937 43.0137 16.9937Z" fill="#050505"/>
<path d="M24.4172 0.0102858C22.622 0.0102858 21.1604 1.46465 21.1604 3.25184V12.6087L5.2148 0.667197C4.6688 0.256329 3.9912 0.0102858 3.2568 0.0102858C1.4612 0.0102858 0 1.46465 0 3.25344V18.882C0 20.6688 1.4612 22.1235 3.2568 22.1235C5.0524 22.1235 6.5136 20.6692 6.5136 18.882V9.53908L22.982 21.8508L23.0556 21.903C23.352 22.0984 23.962 22.1239 24.4156 22.1239C26.2112 22.1239 27.6724 20.6695 27.6724 18.8824V3.25344C27.6724 1.46465 26.2112 0.0118783 24.4156 0.0118783L24.4176 0.0098877L24.4172 0.0102858Z" fill="#050505"/>
<path d="M117.523 9.97907H111.538C110.169 9.97907 109.059 11.0835 109.059 12.4463C109.059 13.8091 110.169 14.9135 111.538 14.9135H112.336C111.167 16.3093 109.136 16.9957 106.215 16.9957C101.289 16.9957 98.8925 15.0444 98.8925 11.0309C98.8925 7.01739 101.218 5.13664 106.215 5.13664C109.378 5.13664 111.495 5.93249 112.609 7.54929C112.849 7.89725 113.235 8.11025 113.66 8.11025H117.669C118.818 8.11025 119.619 6.9529 119.187 5.89308C117.525 1.82103 113.394 0.0123291 106.215 0.0123291C96.5157 0.0123291 92.3789 3.30843 92.3789 11.0365C92.3789 14.876 93.4081 17.5996 95.5237 19.3629C97.7533 21.2222 101.251 22.1252 106.215 22.1252C109.625 22.1252 112.475 21.3795 114.433 19.6994C114.433 20.9475 115.616 22.1232 117.052 22.1232C119.044 22.1232 120 20.6704 120 18.8816V12.4502C120 11.0875 118.89 9.98305 117.521 9.98305L117.523 9.97907Z" fill="#050505"/>
</g>
<defs>
<clipPath id="clip0_1760_107384">
<rect width="120" height="22.1359" fill="white"/>
</clipPath>
</defs>
</svg>
